<svg xmlns="http://www.w3.org/2000/svg" width="980" height="390" viewBox="0 0 980 390" role="img" aria-labelledby="call-title call-desc">
  <title id="call-title">Local proxy sends a call to a remote agent</title>
  <desc id="call-desc">A local signal reaches AgentProxy. The proxy enqueues a Call into the remote actor inbox and marks the actor ready. The owning scheduler executes the slot.</desc>
  <defs>
    <marker id="arrow-call" viewBox="0 0 10 10" refX="9" refY="5" markerWidth="8" markerHeight="8" orient="auto-start-reverse">
      <path d="M 0 0 L 10 5 L 0 10 z" fill="#333"/>
    </marker>
    <style>
      .box { fill: #f8fafc; stroke: #334155; stroke-width: 2; }
      .node { fill: #e0f2fe; stroke: #0369a1; stroke-width: 2; }
      .proxy { fill: #ecfccb; stroke: #4d7c0f; stroke-width: 2; }
      .queue { fill: #fef9c3; stroke: #a16207; stroke-width: 2; }
      .run { fill: #fae8ff; stroke: #a21caf; stroke-width: 2; }
      .text { font: 14px sans-serif; fill: #111827; }
      .small { font: 12px sans-serif; fill: #374151; }
      .label { font: 700 16px sans-serif; fill: #111827; }
      .line { stroke: #333; stroke-width: 2; fill: none; marker-end: url(#arrow-call); }
    </style>
  </defs>

  <rect class="box" x="30" y="40" width="380" height="290" rx="10"/>
  <text class="label" x="55" y="72">Home thread</text>
  <rect class="node" x="70" y="105" width="130" height="48" rx="8"/>
  <text class="text" x="102" y="134">emit signal</text>
  <rect class="proxy" x="245" y="105" width="130" height="48" rx="8"/>
  <text class="text" x="276" y="134">AgentProxy</text>
  <rect class="queue" x="148" y="218" width="170" height="58" rx="8"/>
  <text class="text" x="178" y="243">Call message</text>
  <text class="small" x="174" y="262">slot + request + tgt</text>

  <rect class="box" x="560" y="40" width="380" height="290" rx="10"/>
  <text class="label" x="585" y="72">Owning scheduler</text>
  <rect class="queue" x="605" y="105" width="155" height="58" rx="8"/>
  <text class="text" x="643" y="130">actor inbox</text>
  <text class="small" x="642" y="149">Chan[ThreadSignal]</text>
  <rect class="run" x="790" y="105" width="115" height="58" rx="8"/>
  <text class="text" x="816" y="139">markReady</text>
  <rect class="node" x="682" y="230" width="150" height="55" rx="8"/>
  <text class="text" x="712" y="255">real agent</text>
  <text class="small" x="711" y="274">callMethod(slot)</text>

  <path class="line" d="M 200 129 L 245 129"/>
  <path class="line" d="M 310 153 L 250 218"/>
  <path class="line" d="M 318 247 C 420 247 505 134 605 134"/>
  <path class="line" d="M 760 134 L 790 134"/>
  <path class="line" d="M 848 163 C 845 215 815 230 782 230"/>
  <path class="line" d="M 682 243 C 590 230 570 170 605 151"/>

  <text class="small" x="420" y="225">enqueue isolated Call</text>
  <text class="small" x="782" y="202">scheduler leases actor</text>
</svg>
