<svg xmlns="http://www.w3.org/2000/svg" width="920" height="330" viewBox="0 0 920 330" role="img" aria-labelledby="move-title move-desc">
  <title id="move-title">Move transfers ownership and leaves a proxy behind</title>
  <desc id="move-desc">Before move, the source thread owns an agent. After Move, the destination scheduler owns the agent in references, and source code uses an AgentProxy.</desc>
  <defs>
    <marker id="arrow" viewBox="0 0 10 10" refX="9" refY="5" markerWidth="8" markerHeight="8" orient="auto-start-reverse">
      <path d="M 0 0 L 10 5 L 0 10 z" fill="#333"/>
    </marker>
    <style>
      .box { fill: #f8fafc; stroke: #334155; stroke-width: 2; }
      .agent { fill: #e0f2fe; stroke: #0369a1; stroke-width: 2; }
      .proxy { fill: #ecfccb; stroke: #4d7c0f; stroke-width: 2; }
      .store { fill: #fff7ed; stroke: #c2410c; stroke-width: 2; }
      .text { font: 15px sans-serif; fill: #111827; }
      .small { font: 13px sans-serif; fill: #374151; }
      .label { font: 700 16px sans-serif; fill: #111827; }
      .line { stroke: #333; stroke-width: 2; fill: none; marker-end: url(#arrow); }
      .dash { stroke: #64748b; stroke-width: 2; stroke-dasharray: 7 5; fill: none; marker-end: url(#arrow); }
    </style>
  </defs>

  <rect class="box" x="35" y="45" width="340" height="235" rx="10"/>
  <text class="label" x="60" y="78">Source thread</text>
  <rect class="agent" x="83" y="115" width="190" height="55" rx="8"/>
  <text class="text" x="111" y="149">Counter agent</text>
  <text class="small" x="83" y="205">Before move: source owns the ref</text>

  <rect class="box" x="545" y="45" width="340" height="235" rx="10"/>
  <text class="label" x="570" y="78">Destination scheduler</text>
  <rect class="store" x="592" y="107" width="230" height="82" rx="8"/>
  <text class="text" x="625" y="136">references table</text>
  <text class="small" x="620" y="164">WeakRef[Agent] -&gt; Agent</text>

  <path class="line" d="M 275 143 C 365 143 445 143 592 143"/>
  <text class="text" x="414" y="125">Move(agent)</text>

  <rect class="proxy" x="83" y="215" width="190" height="42" rx="8"/>
  <text class="text" x="128" y="242">AgentProxy</text>
  <path class="dash" d="M 273 236 C 410 260 520 220 592 178"/>
  <text class="small" x="385" y="266">proxy.remote + proxy.remoteThread</text>
</svg>
